<?xml version="1.0" encoding="UTF-8" standalone="no"?>
<!-- Created with Inkscape (http://www.inkscape.org/) -->

<svg
   width="1000"
   height="1000"
   viewBox="0 0 1000 1000"
   version="1.1"
   id="svg5"
   inkscape:version="1.3 (0e150ed, 2023-07-21)"
   sodipodi:docname="logo.svg"
   xmlns:inkscape="http://www.inkscape.org/namespaces/inkscape"
   xmlns:sodipodi="http://sodipodi.sourceforge.net/DTD/sodipodi-0.dtd"
   xmlns="http://www.w3.org/2000/svg"
   xmlns:svg="http://www.w3.org/2000/svg">
  <sodipodi:namedview
     id="namedview7"
     pagecolor="#ffffff"
     bordercolor="#666666"
     borderopacity="1.0"
     inkscape:showpageshadow="2"
     inkscape:pageopacity="0.0"
     inkscape:pagecheckerboard="0"
     inkscape:deskcolor="#d1d1d1"
     inkscape:document-units="px"
     showgrid="true"
     inkscape:zoom="0.65392408"
     inkscape:cx="406.01043"
     inkscape:cy="658.3333"
     inkscape:window-width="1440"
     inkscape:window-height="900"
     inkscape:window-x="0"
     inkscape:window-y="0"
     inkscape:window-maximized="0"
     inkscape:current-layer="layer1">
    <inkscape:grid
       type="xygrid"
       id="grid1776"
       spacingx="5"
       spacingy="5"
       empspacing="2"
       originx="0"
       originy="0"
       units="px"
       visible="true" />
  </sodipodi:namedview>
  <defs
     id="defs2" />
  <g
     inkscape:label="Layer 1"
     inkscape:groupmode="layer"
     id="layer1">
    <path
       style="fill:#000000;fill-opacity:1;stroke:none;stroke-width:1px;stroke-linecap:butt;stroke-linejoin:miter;stroke-opacity:1"
       d="M 60,1020 C 45.7189,896.11626 40,820 60,700 40,560 20.152045,472.92985 40,340 c 140,40 195.41231,123.05846 275.53233,183.05846 120,-20 280.26372,-16.94154 388.81533,3.05846 C 785.40044,441.95401 843.05846,364.58769 960,320 c 20,120 13.76307,239.07086 -4.7077,383.05846 23.17847,119.75997 20,227.88618 7.76616,318.47074 z"
       id="path2"
       sodipodi:nodetypes="ccccccccc" />
    <path
       style="fill:#ffff00;stroke:none;stroke-width:1px;stroke-linecap:butt;stroke-linejoin:miter;stroke-opacity:1"
       d="m 153.84984,864.9253 c 40,-88.48355 221.52923,-93.19125 281.52923,18.3252 -40,108.48355 -221.52923,93.19125 -281.52923,-18.3252 z"
       id="path3"
       sodipodi:nodetypes="ccc" />
    <path
       style="fill:#ffff00;stroke:none;stroke-width:1px;stroke-linecap:butt;stroke-linejoin:miter;stroke-opacity:1"
       d="m 581.0576,890.00656 c 40,-88.48355 215.41231,-133.56481 275.41231,-22.04836 -40,108.48355 -215.41231,133.5648 -275.41231,22.04836 z"
       id="path4"
       sodipodi:nodetypes="ccc" />
    <path
       style="fill:#1a1a1a;stroke:none;stroke-width:1px;stroke-linecap:butt;stroke-linejoin:miter;stroke-opacity:1"
       d="m 298.60583,809.58104 c -27.51868,52.39305 -30.60283,98.43001 -7.89042,139.52391 21.93377,-33.56267 30.31139,-93.18494 7.89042,-139.52391 z"
       id="path5"
       sodipodi:nodetypes="ccc" />
    <path
       style="fill:#1a1a1a;stroke:none;stroke-width:1px;stroke-linecap:butt;stroke-linejoin:miter;stroke-opacity:1"
       d="m 716.42633,811.19617 c -19.28605,55.94958 -15.37854,101.92399 13.28243,139.11418 16.61057,-36.49153 15.883,-96.69511 -13.28243,-139.11418 z"
       id="path6"
       sodipodi:nodetypes="ccc" />
  </g>
</svg>
